HIERARCHY
ROOT joint_Root
{
	OFFSET 0.0 0.0 0.0
	CHANNELS 6 Xposition Yposition Zposition Zrotation Xrotation Yrotation 
	JOINT Hips
	{
		OFFSET 4.5925 91.4895 -427.239
		CHANNELS 6 Xposition Yposition Zposition Zrotation Xrotation Yrotation 
		JOINT Spine
		{
			OFFSET 15.7357 0.0 0.0
			CHANNELS 6 Xposition Yposition Zposition Zrotation Xrotation Yrotation 
			JOINT Chest
			{
				OFFSET 8.98455 -0.406207 0.0
				CHANNELS 6 Xposition Yposition Zposition Zrotation Xrotation Yrotation 
				JOINT Neck
				{
					OFFSET 16.3773 0.0 0.0
					CHANNELS 6 Xposition Yposition Zposition Zrotation Xrotation Yrotation 
					JOINT Head
					{
						OFFSET 6.45672 0.0 0.0
						CHANNELS 6 Xposition Yposition Zposition Zrotation Xrotation Yrotation 
						End Site
						{
							OFFSET 0.0 0.0 0.0
						}
					}
				}
				JOINT Shoulder_L
				{
					OFFSET 12.9942 -0.242716 4.98039
					CHANNELS 6 Xposition Yposition Zposition Zrotation Xrotation Yrotation 
					JOINT UpperArm_L
					{
						OFFSET 5.34809 0.0 0.0
						CHANNELS 6 Xposition Yposition Zposition Zrotation Xrotation Yrotation 
						JOINT LowerArm_L
						{
							OFFSET 24.3286 1.87007e-05 0.0
							CHANNELS 6 Xposition Yposition Zposition Zrotation Xrotation Yrotation 
							JOINT Hand_L
							{
								OFFSET 22.2916 0.0 0.0
								CHANNELS 6 Xposition Yposition Zposition Zrotation Xrotation Yrotation 
								End Site
								{
									OFFSET 0.0 0.0 0.0
								}
							}
						}
					}
				}
				JOINT Shoulder_R
				{
					OFFSET 12.9945 -0.242716 -4.98039
					CHANNELS 6 Xposition Yposition Zposition Zrotation Xrotation Yrotation 
					JOINT UpperArm_R
					{
						OFFSET -5.34813 0.0 0.0
						CHANNELS 6 Xposition Yposition Zposition Zrotation Xrotation Yrotation 
						JOINT LowerArm_R
						{
							OFFSET -24.3289 0.000322201 0.0
							CHANNELS 6 Xposition Yposition Zposition Zrotation Xrotation Yrotation 
							JOINT Hand_R
							{
								OFFSET -22.2915 -0.000108084 0.0
								CHANNELS 6 Xposition Yposition Zposition Zrotation Xrotation Yrotation 
								End Site
								{
									OFFSET 0.0 0.0 0.0
								}
							}
						}
					}
				}
			}
		}
		JOINT UpperLeg_L
		{
			OFFSET -2.19248 -6.46944 0.0
			CHANNELS 6 Xposition Yposition Zposition Zrotation Xrotation Yrotation 
			JOINT LowerLeg_L
			{
				OFFSET 39.0811 0.0 -1.23785e-05
				CHANNELS 6 Xposition Yposition Zposition Zrotation Xrotation Yrotation 
				JOINT Foot_L
				{
					OFFSET 40.9854 0.0 -1.26872e-05
					CHANNELS 6 Xposition Yposition Zposition Zrotation Xrotation Yrotation 
					JOINT Toes_L
					{
						OFFSET 11.7543 0.0 0.0
						CHANNELS 6 Xposition Yposition Zposition Zrotation Xrotation Yrotation 
						End Site
						{
							OFFSET 0.0 0.0 0.0
						}
					}
				}
			}
		}
		JOINT UpperLeg_R
		{
			OFFSET -2.19251 6.46944 0.0
			CHANNELS 6 Xposition Yposition Zposition Zrotation Xrotation Yrotation 
			JOINT LowerLeg_R
			{
				OFFSET -39.0811 -0.00228153 -0.0401928
				CHANNELS 6 Xposition Yposition Zposition Zrotation Xrotation Yrotation 
				JOINT Foot_R
				{
					OFFSET -40.9854 0.0 0.0
					CHANNELS 6 Xposition Yposition Zposition Zrotation Xrotation Yrotation 
					JOINT Toes_R
					{
						OFFSET -11.7543 0.0 0.0
						CHANNELS 6 Xposition Yposition Zposition Zrotation Xrotation Yrotation 
						End Site
						{
							OFFSET 0.0 0.0 0.0
						}
					}
				}
			}
		}
	}
}
MOTION
Frames:	6
Frame Time:	0.0333333
0.000000 0.000000 0.000000 0.000000 0.000000 -0.000000 -1.118020 90.013200 -4.856630 88.769300 -2.562450 16.016000 15.735700 0.000005 -0.000001 88.159800 76.187900 -88.120800 8.984550 -0.406207 -0.000000 19.845900 -0.863440 0.229219 16.377300 -0.000001 -0.000001 4.075210 -4.045550 3.073900 6.456720 -0.000001 -0.000000 -7.917170 -2.395730 -0.677658 12.994200 -0.242716 4.980390 -91.039200 5.603220 -79.475500 5.348090 -0.000007 -0.000001 -51.090000 43.288800 -32.806100 24.328600 0.000019 0.000005 6.794260 17.932100 -21.154300 22.291600 -0.000001 0.000005 11.230300 5.263760 1.066220 12.994500 -0.242716 -4.980390 89.350000 10.416700 -86.409500 -5.348130 -0.000001 -0.000004 -58.734800 30.843100 -22.518300 -24.328900 0.000322 -0.000009 2.561510 5.974830 -23.264500 -22.291500 -0.000108 -0.000004 16.632700 5.375410 -2.154380 -2.192480 -6.469440 -0.000000 -173.214000 -8.910000 0.195864 39.081100 -0.000007 -0.000012 -0.200529 0.276390 35.962400 40.985400 -0.000006 -0.000013 0.009111 5.460900 -69.994600 11.754300 -0.000000 0.000003 -0.000058 -0.000640 -16.602300 -2.192510 6.469440 -0.000001 174.302000 18.733300 -177.996000 -39.081100 -0.002282 -0.040193 -0.186337 0.272704 34.813600 -40.985400 0.000008 0.000006 3.999760 12.016300 -70.430500 -11.754300 -0.000006 -0.000006 -0.004020 -0.051648 -18.674000
0.000000 0.000000 0.000000 0.000000 0.000000 -0.000000 -1.122660 90.015500 -4.870450 88.748800 -2.534780 15.964500 15.735700 0.000005 -0.000001 88.153700 76.205900 -88.118100 8.984550 -0.406207 -0.000000 19.809700 -0.865612 0.222463 16.377300 -0.000001 -0.000001 4.267190 -3.848760 3.068930 6.456720 -0.000001 -0.000000 -8.177980 -2.237070 -0.405834 12.994200 -0.242716 4.980390 -91.015500 5.459190 -79.445500 5.348090 -0.000007 -0.000001 -51.222400 43.256200 -32.738900 24.328600 0.000019 0.000005 6.798470 17.880800 -21.219900 22.291600 -0.000001 0.000005 11.232500 5.264730 1.040150 12.994500 -0.242716 -4.980390 89.326800 10.330200 -86.251200 -5.348130 -0.000001 -0.000004 -59.168300 29.576700 -22.125300 -24.328900 0.000322 -0.000009 3.106750 6.754280 -24.779000 -22.291500 -0.000108 -0.000004 17.025200 5.377790 -2.228760 -2.192480 -6.469440 -0.000000 -173.214000 -8.879910 0.125468 39.081100 -0.000007 -0.000012 -0.195209 0.269003 35.967900 40.985400 -0.000006 -0.000013 0.018105 5.490690 -69.986300 11.754300 -0.000000 0.000003 -0.000049 -0.000560 -16.599300 -2.192510 6.469440 -0.000001 174.340000 18.782200 -178.047000 -39.081100 -0.002282 -0.040193 -0.185051 0.271017 34.797400 -40.985400 0.000008 0.000006 4.005150 12.006300 -70.414700 -11.754300 -0.000006 -0.000006 -0.004174 -0.053238 -18.738800
0.000000 0.000000 0.000000 0.000000 0.000000 -0.000000 -1.111530 90.028400 -4.895350 88.765900 -2.546950 15.941000 15.735700 0.000005 -0.000001 88.162300 76.212100 -88.145300 8.984550 -0.406207 -0.000000 19.797400 -0.863106 0.184804 16.377300 -0.000001 -0.000001 4.422310 -3.668030 3.098840 6.456720 -0.000001 -0.000000 -8.407090 -2.052240 -0.138020 12.994200 -0.242716 4.980390 -90.997300 5.325890 -79.377700 5.348090 -0.000007 -0.000001 -51.302900 43.215500 -32.722200 24.328600 0.000019 0.000005 6.765900 17.763300 -21.249500 22.291600 -0.000001 0.000005 11.140900 5.267420 0.967734 12.994500 -0.242716 -4.980390 89.301300 10.244800 -86.077200 -5.348130 -0.000001 -0.000004 -59.486700 28.048300 -21.748500 -24.328900 0.000322 -0.000009 3.351540 6.630280 -26.902200 -22.291500 -0.000108 -0.000004 17.637600 5.382380 -2.372540 -2.192480 -6.469440 -0.000000 -173.231000 -8.931590 0.113069 39.081100 -0.000007 -0.000012 -0.196705 0.271668 35.907400 40.985400 -0.000006 -0.000013 0.024696 5.493170 -69.934400 11.754300 -0.000000 0.000003 -0.000053 -0.000591 -16.600500 -2.192510 6.469440 -0.000001 174.302000 18.838000 -178.059000 -39.081100 -0.002282 -0.040193 -0.185792 0.272562 34.750200 -40.985400 0.000008 0.000006 4.012180 12.079400 -70.376200 -11.754300 -0.000006 -0.000006 -0.004018 -0.051630 -18.673300
0.000000 0.000000 0.000000 0.000000 0.000000 -0.000000 -1.095240 90.031000 -4.931900 88.766400 -2.543640 15.862000 15.735700 0.000005 -0.000001 88.119600 76.225300 -88.119200 8.984550 -0.406207 -0.000000 19.770300 -0.884133 0.154986 16.377300 -0.000001 -0.000001 4.570950 -3.511940 3.174220 6.456720 -0.000001 -0.000000 -8.661630 -1.854280 0.100746 12.994200 -0.242716 4.980390 -90.973100 5.177540 -79.341000 5.348090 -0.000007 -0.000001 -51.384100 43.146100 -32.714300 24.328600 0.000019 0.000005 6.841550 17.984700 -21.234800 22.291600 -0.000001 0.000005 11.209500 5.266000 1.006020 12.994500 -0.242716 -4.980390 89.274700 10.142300 -85.887900 -5.348130 -0.000001 -0.000004 -59.517800 26.590000 -21.599900 -24.328900 0.000322 -0.000009 3.440240 6.114960 -29.445500 -22.291500 -0.000108 -0.000004 18.157000 5.391490 -2.663040 -2.192480 -6.469440 -0.000000 -173.259000 -8.946330 0.000199 39.081100 -0.000007 -0.000012 -0.193958 0.267850 35.909800 40.985400 -0.000006 -0.000013 0.041885 5.507080 -69.906200 11.754300 -0.000000 0.000003 -0.000049 -0.000560 -16.599300 -2.192510 6.469440 -0.000001 174.312000 18.897300 -178.169000 -39.081100 -0.002282 -0.040193 -0.184393 0.270538 34.751000 -40.985400 0.000008 0.000006 4.020070 12.123800 -70.346700 -11.754300 -0.000006 -0.000006 -0.004105 -0.052525 -18.709700
0.000000 0.000000 0.000000 0.000000 0.000000 -0.000000 -1.076660 90.038300 -4.973080 88.749400 -2.577090 15.828900 15.735700 0.000005 -0.000001 88.081800 76.229000 -88.090400 8.984550 -0.406207 -0.000000 19.762100 -0.902619 0.140005 16.377300 -0.000001 -0.000001 4.716500 -3.371210 3.242280 6.456720 -0.000001 -0.000000 -8.863270 -1.711560 0.314991 12.994200 -0.242716 4.980390 -90.945300 5.028600 -79.338800 5.348090 -0.000007 -0.000001 -51.584600 42.994900 -32.588200 24.328600 0.000019 0.000005 6.865600 18.079500 -21.205100 22.291600 -0.000001 0.000005 11.132400 5.264500 1.046480 12.994500 -0.242716 -4.980390 89.258000 9.994880 -85.732200 -5.348130 -0.000001 -0.000004 -59.282800 25.258200 -21.618000 -24.328900 0.000322 -0.000009 4.005770 6.303980 -32.531700 -22.291500 -0.000108 -0.000004 18.775300 5.395960 -2.807230 -2.192480 -6.469440 -0.000000 -173.247000 -9.006080 -0.048489 39.081100 -0.000007 -0.000012 -0.196001 0.270810 35.895800 40.985400 -0.000006 -0.000013 0.057719 5.507570 -69.873400 11.754300 -0.000000 0.000003 -0.000054 -0.000603 -16.600900 -2.192510 6.469440 -0.000001 174.322000 18.946100 -178.219000 -39.081100 -0.002282 -0.040193 -0.183801 0.270019 34.717700 -40.985400 0.000008 0.000006 4.032710 12.206000 -70.296600 -11.754300 -0.000006 -0.000006 -0.004074 -0.052207 -18.696800
0.000000 0.000000 0.000000 0.000000 0.000000 -0.000000 -1.060200 90.046100 -5.017790 88.743700 -2.596570 15.771800 15.735700 0.000005 -0.000001 87.987500 76.239300 -87.997100 8.984550 -0.406207 -0.000000 19.740200 -0.946408 0.145276 16.377300 -0.000001 -0.000001 4.860110 -3.272640 3.333890 6.456720 -0.000001 -0.000000 -9.037710 -1.596320 0.392109 12.994200 -0.242716 4.980390 -90.930800 4.947290 -79.331500 5.348090 -0.000007 -0.000001 -51.594600 42.927000 -32.579700 24.328600 0.000019 0.000005 6.825410 18.042800 -21.128600 22.291600 -0.000001 0.000005 11.100000 5.266180 1.001320 12.994500 -0.242716 -4.980390 89.245700 9.803800 -85.578700 -5.348130 -0.000001 -0.000004 -58.884200 23.948300 -21.879500 -24.328900 0.000322 -0.000009 4.868780 6.788870 -35.780200 -22.291500 -0.000108 -0.000004 19.483700 5.402620 -3.022770 -2.192480 -6.469440 -0.000000 -173.252000 -9.046150 -0.122294 39.081100 -0.000007 -0.000012 -0.196606 0.271857 35.874700 40.985400 -0.000006 -0.000013 0.075817 5.533340 -69.835300 11.754300 -0.000000 0.000003 -0.000047 -0.000537 -16.598400 -2.192510 6.469440 -0.000001 174.344000 18.970100 -178.306000 -39.081100 -0.002282 -0.040193 -0.186211 0.273765 34.691500 -40.985400 0.000008 0.000006 4.033410 12.233700 -70.242100 -11.754300 -0.000006 -0.000006 -0.003954 -0.050961 -18.646000
